<?xml version="1.0" encoding="utf-8"?>
<!-- Generator: Adobe Illustrator 18.0.0, SVG Export Plug-In . SVG Version: 6.00 Build 0)  -->
<!DOCTYPE svg PUBLIC "-//W3C//DTD SVG 1.1//EN" "http://www.w3.org/Graphics/SVG/1.1/DTD/svg11.dtd">
<svg version="1.1" id="Слой_2" xmlns="http://www.w3.org/2000/svg" xmlns:xlink="http://www.w3.org/1999/xlink" x="0px" y="0px"
	 viewBox="0 330 1590 633" enable-background="new 0 330 1590 633" xml:space="preserve">
<path fill="#808080"    d="M1583.4,750.7c0,0-2.5-67.2-5.2-71.4
	c-2.5-4.2-30.1-41.3-30.1-41.3s-1.9,4.2-0.1-4.2c1.7-8.5,2-65.7-25.8-102.4c-10.5-13.9-40.4-17.2-40.4-17.2l-109.3-5.2
	c0,0-100.7-48.2-195.4-85.2c-11.4-4.5-24.6-8.2-39.1-11.4v-11.7h-2.3l64.3-60.6l-66.4,60.4h-23.2l-7.4,5.3
	c-104.7-15.2-244.7-8.6-270.4-7.3c-27.7,1.5-130.9,16.3-166.2,28.4c-35.2,12.1-94.2,43.1-131.2,62.8s-146.4,83.2-146.4,83.2
	s-16.7-4.6-21.2-4c-40.5,6-172.5,30.7-196.4,39.6c-76.6,28.4-112,51.7-124,68.9c-12.1,17.2-6.9,37.9-6.9,37.9s-23.2,14.6-27.6,22.4
	c-4.4,7.8-3.4,56-3.4,56l5.2,2.5l15.5,43.9l-5.2-0.8v8.6c0,0,5.2,1.7,25.8,10.3s114.5,24.9,114.5,24.9l12.1-22.4l6.1,0.3
	c8.7,54.1,55.6,95.3,112.2,95.3c53,0,97.5-36.3,110.1-85.3l19.6,0.9V883l710.5-9.4l-1.7-16.3l17.2-1.1
	c6.6,56.4,54.6,100.2,112.8,100.2c62.7,0,113.4-50.6,113.7-113.3l21.6-1.3v15.5c0,0,102.4-19.7,117.1-26.6c4.5-2.1,7.8-3.7,10.9-5.4
	l0,0l25.3,0.8v-16h-6.6c2.3-2.3,4.9-4.9,7.8-8.1C1573.3,781.4,1583.4,750.7,1583.4,750.7z"/>
</svg>
